<svg id="visual" viewBox="0 0 900 675" width="900" height="675" xmlns="http://www.w3.org/2000/svg" xmlns:xlink="http://www.w3.org/1999/xlink" version="1.1"><rect x="0" y="0" width="900" height="675" fill="#001220"></rect><path d="M568 0L548 18.8C528 37.7 488 75.3 469.8 112.8C451.7 150.3 455.3 187.7 480 225.2C504.7 262.7 550.3 300.3 560.7 337.8C571 375.3 546 412.7 542 450.2C538 487.7 555 525.3 543 562.8C531 600.3 490 637.7 469.5 656.3L449 675L0 675L0 656.3C0 637.7 0 600.3 0 562.8C0 525.3 0 487.7 0 450.2C0 412.7 0 375.3 0 337.8C0 300.3 0 262.7 0 225.2C0 187.7 0 150.3 0 112.8C0 75.3 0 37.7 0 18.8L0 0Z" fill="#aa7070"></path><path d="M401 0L394.7 18.8C388.3 37.7 375.7 75.3 392 112.8C408.3 150.3 453.7 187.7 471.2 225.2C488.7 262.7 478.3 300.3 470.2 337.8C462 375.3 456 412.7 457.5 450.2C459 487.7 468 525.3 475.8 562.8C483.7 600.3 490.3 637.7 493.7 656.3L497 675L0 675L0 656.3C0 637.7 0 600.3 0 562.8C0 525.3 0 487.7 0 450.2C0 412.7 0 375.3 0 337.8C0 300.3 0 262.7 0 225.2C0 187.7 0 150.3 0 112.8C0 75.3 0 37.7 0 18.8L0 0Z" fill="#945b5b"></path><path d="M302 0L310 18.8C318 37.7 334 75.3 341.8 112.8C349.7 150.3 349.3 187.7 351.3 225.2C353.3 262.7 357.7 300.3 356.5 337.8C355.3 375.3 348.7 412.7 331.5 450.2C314.3 487.7 286.7 525.3 286.2 562.8C285.7 600.3 312.3 637.7 325.7 656.3L339 675L0 675L0 656.3C0 637.7 0 600.3 0 562.8C0 525.3 0 487.7 0 450.2C0 412.7 0 375.3 0 337.8C0 300.3 0 262.7 0 225.2C0 187.7 0 150.3 0 112.8C0 75.3 0 37.7 0 18.8L0 0Z" fill="#7e4646"></path><path d="M196 0L190.3 18.8C184.7 37.7 173.3 75.3 172.7 112.8C172 150.3 182 187.7 189.2 225.2C196.3 262.7 200.7 300.3 214 337.8C227.3 375.3 249.7 412.7 259.8 450.2C270 487.7 268 525.3 249 562.8C230 600.3 194 637.7 176 656.3L158 675L0 675L0 656.3C0 637.7 0 600.3 0 562.8C0 525.3 0 487.7 0 450.2C0 412.7 0 375.3 0 337.8C0 300.3 0 262.7 0 225.2C0 187.7 0 150.3 0 112.8C0 75.3 0 37.7 0 18.8L0 0Z" fill="#683232"></path><path d="M129 0L122.3 18.8C115.7 37.7 102.3 75.3 97 112.8C91.7 150.3 94.3 187.7 104 225.2C113.7 262.7 130.3 300.3 127.7 337.8C125 375.3 103 412.7 106 450.2C109 487.7 137 525.3 141.8 562.8C146.7 600.3 128.3 637.7 119.2 656.3L110 675L0 675L0 656.3C0 637.7 0 600.3 0 562.8C0 525.3 0 487.7 0 450.2C0 412.7 0 375.3 0 337.8C0 300.3 0 262.7 0 225.2C0 187.7 0 150.3 0 112.8C0 75.3 0 37.7 0 18.8L0 0Z" fill="#531f1f"></path></svg>